<svg width="18" height="18" viewBox="0 0 18 18" fill="none" xmlns="http://www.w3.org/2000/svg">
<path fill-rule="evenodd" clip-rule="evenodd" d="M3.9375 1.40625C3.9375 0.94026 4.31526 0.5625 4.78125 0.5625C5.24724 0.5625 5.625 0.94026 5.625 1.40625V2.25H12.375V1.40625C12.375 0.94026 12.7528 0.5625 13.2188 0.5625C13.6847 0.5625 14.0625 0.94026 14.0625 1.40625V2.25C15.9265 2.25 17.4375 3.76104 17.4375 5.625V14.0625C17.4375 15.9265 15.9265 17.4375 14.0625 17.4375H3.9375C2.07354 17.4375 0.5625 15.9265 0.5625 14.0625V5.625C0.5625 3.76104 2.07354 2.25 3.9375 2.25V1.40625ZM12.375 3.9375V4.78125C12.375 5.24724 12.7528 5.625 13.2188 5.625C13.6847 5.625 14.0625 5.24724 14.0625 4.78125V3.9375C14.9945 3.9375 15.75 4.69302 15.75 5.625V6.75H2.25V5.625C2.25 4.69302 3.00552 3.9375 3.9375 3.9375V4.78125C3.9375 5.24724 4.31526 5.625 4.78125 5.625C5.24724 5.625 5.625 5.24724 5.625 4.78125V3.9375H12.375ZM15.75 8.4375H2.25V14.0625C2.25 14.9945 3.00552 15.75 3.9375 15.75H14.0625C14.9945 15.75 15.75 14.9945 15.75 14.0625V8.4375Z" fill="#313131"/>
</svg>
