<svg width="20" height="20" viewBox="0 0 20 20" fill="none" xmlns="http://www.w3.org/2000/svg">
<path d="M19.1538 0.846248C18.3588 0.0512542 17.0698 0.051248 16.2748 0.846245L10 7.12106L3.72519 0.846247C2.93019 0.051251 1.64125 0.0512518 0.846255 0.846247C0.0512593 1.64124 0.0512598 2.93019 0.846255 3.72518L7.12107 9.99999L0.846246 16.2748C0.0512505 17.0698 0.0512518 18.3588 0.846247 19.1538C1.64124 19.9487 2.93018 19.9487 3.72518 19.1538L10 12.8789L16.2748 19.1537C17.0698 19.9487 18.3587 19.9487 19.1537 19.1538C19.9487 18.3588 19.9487 17.0698 19.1537 16.2748L12.8789 10L19.1538 3.72518C19.9487 2.93018 19.9488 1.64124 19.1538 0.846248Z" fill="#313131"/>
</svg>
