<svg width="17" height="16" viewBox="0 0 17 16" fill="none" xmlns="http://www.w3.org/2000/svg">
<path d="M3.98438 0C3.39757 0 2.92188 0.462158 2.92188 1.03226V1.80645H1.0625C0.475698 1.80645 0 2.26861 0 2.83871C0 3.40881 0.475698 3.87097 1.0625 3.87097H2.92188V4.64516C2.92188 5.21526 3.39757 5.67742 3.98438 5.67742C4.57118 5.67742 5.04688 5.21526 5.04688 4.64516V1.03226C5.04688 0.462158 4.57118 0 3.98438 0Z" fill="#313131"/>
<path d="M15.9375 1.80645H6.64062V3.87097H15.9375C16.5243 3.87097 17 3.40881 17 2.83871C17 2.26861 16.5243 1.80645 15.9375 1.80645Z" fill="#313131"/>
<path d="M12.4844 5.16129C11.8976 5.16129 11.4219 5.62345 11.4219 6.19355V9.80645C11.4219 10.3766 11.8976 10.8387 12.4844 10.8387C13.0712 10.8387 13.5469 10.3766 13.5469 9.80645V9.03226H15.9375C16.5243 9.03226 17 8.5701 17 8C17 7.4299 16.5243 6.96774 15.9375 6.96774H13.5469V6.19355C13.5469 5.62345 13.0712 5.16129 12.4844 5.16129Z" fill="#313131"/>
<path d="M1.0625 6.96774C0.475698 6.96774 0 7.4299 0 8C0 8.5701 0.475698 9.03226 1.0625 9.03226H9.82812V6.96774H1.0625Z" fill="#313131"/>
<path d="M8.76562 10.3226C8.17882 10.3226 7.70312 10.7847 7.70312 11.3548V12.129H1.0625C0.475698 12.129 0 12.5912 0 13.1613C0 13.7314 0.475698 14.1935 1.0625 14.1935H7.70312V14.9677C7.70312 15.5378 8.17882 16 8.76562 16C9.35243 16 9.82812 15.5378 9.82812 14.9677V11.3548C9.82812 10.7847 9.35243 10.3226 8.76562 10.3226Z" fill="#313131"/>
<path d="M15.9375 12.129H11.4219V14.1935H15.9375C16.5243 14.1935 17 13.7314 17 13.1613C17 12.5912 16.5243 12.129 15.9375 12.129Z" fill="#313131"/>
</svg>
