<svg width="500" height="550" viewBox="0 0 500 550" fill="none" xmlns="http://www.w3.org/2000/svg">
<path d="M261.062 7.72128C291.811 26.8422 301.857 57.4913 296.767 117.268C295.226 133.321 294.222 147.157 294.344 147.995C294.466 148.833 305.834 138.217 319.728 124.243C363.272 80.3416 390 68.8049 422.122 79.5992C446.047 87.2909 458.361 103.923 466.486 139.126C470.185 155.71 478.592 178.037 484.812 188.269C509.026 227.582 503.479 263.464 470.32 284.053C454.914 293.537 446.665 296.005 419.802 297.72C401.853 298.584 376.433 298.38 363.3 296.842C350.166 295.303 338.901 294.78 338.119 295.32C337.819 296.219 349.219 306.564 363.453 318.641C377.687 330.719 395.059 346.625 401.396 354.701C440.318 400.461 426.301 452.105 371.99 466.316C358.682 469.509 333.159 480.445 315.223 490.293C290.487 503.683 278.627 507.952 266.94 507.49C246.579 506.561 219.984 486.416 213.329 467.26C208.004 451.337 202.068 389.72 204.635 374.804C205.591 369.532 201.08 374.03 194.471 384.82C149.763 456.271 94.6343 527.079 70.3237 543.403C61.658 548.926 55.8171 550.192 46.1166 548.588C31.957 545.913 14.6976 524.857 17.3305 513.354C18.1082 509.82 31.0412 498.123 45.904 487.861C77.194 466.256 125.01 419.175 147.612 388.12L163.061 367.077L139.172 383.341C118.351 397.025 111.006 399.791 89.6845 401.139C69.267 402.785 61.6743 400.879 50.1568 392.69C32.8501 380.198 23.6048 360.987 23.086 336.672C23.3113 326.371 19.0076 308.59 12.5397 293.687C-1.36545 260.169 -3.1353 245.019 4.54727 226.802C18.0527 195.341 57.4268 181.989 107.498 191.92C117.742 194.301 126.477 195.187 127.199 194.227C127.981 193.687 121.162 185.253 112.534 176.222C75.7293 136.148 63.3841 98.5549 77.6762 69.5482C88.2444 47.4939 106.779 35.849 138.397 31.3123C154.837 28.9533 172.899 22.9387 185.659 15.9734C215.932 -0.778792 242.612 -3.75125 261.062 7.72128ZM194.183 36.144C181.362 42.6901 159.989 49.6078 146.077 51.6039C72.7256 62.1289 76.0582 114.707 154.113 186.943C194.347 223.957 189.658 230.192 132.055 218.775C76.1382 207.116 55.538 207.505 37.9678 219.867C18.8331 233.309 17.3477 246.787 31.6181 282.82C37.847 299.041 44.572 324.604 45.8594 339.395C48.9684 363.766 50.2985 366.998 62.1159 374.287C88.2236 391.079 124.881 373.839 189.846 314.456C234.66 273.368 236.589 274.803 230.066 342.487C221.172 435.328 230.149 476.4 261.423 484.32C273.958 487.656 278.052 486.213 301.823 472.105C316.508 463.58 340.406 453.305 355.278 449.032C392.006 438.2 401.327 428.305 399.3 402.495C398.069 385.129 395.109 379.564 379.784 362.936C370.07 352.35 343.171 330.109 320.497 313.252C280.515 283.903 269.35 269.246 284.947 267.008C289.163 266.403 309.224 268.232 329.89 271.257C378.631 277.955 428.206 278.543 447.472 271.928C481.066 260.262 487.348 232.404 464.464 196.323C457.823 186.152 449.959 164.603 446.077 146.761C437.77 110.3 426.969 98.158 402.814 97.7731C381.67 97.384 355.978 116.046 313.702 162.76C291.813 186.867 277.316 199.644 272.856 198.572C265.264 196.666 265.203 196.247 272.822 136.107C279.785 80.3405 274.915 46.8094 257.665 31.7417C242.283 17.6896 227.828 18.9079 194.183 36.144ZM50.3385 512.469C45.9449 514.811 42.6986 519.128 43.1856 522.481C44.8292 533.797 60.8394 525.51 81.9466 501.943C117.547 462.605 119.884 454.996 87.7603 482.711C71.3376 497.048 54.3715 510.607 50.3385 512.469Z" fill="#32C641"/>
<path d="M261.062 7.72128C291.811 26.8422 301.857 57.4913 296.767 117.268C295.226 133.321 294.222 147.157 294.344 147.995C294.466 148.833 305.834 138.217 319.728 124.243C363.272 80.3416 390 68.8049 422.122 79.5992C446.047 87.2909 458.361 103.923 466.486 139.126C470.185 155.71 478.592 178.037 484.812 188.269C509.026 227.582 503.479 263.464 470.32 284.053C454.914 293.537 446.665 296.005 419.802 297.72C401.853 298.584 376.433 298.38 363.3 296.842C350.166 295.303 338.901 294.78 338.119 295.32C337.819 296.219 349.219 306.564 363.453 318.641C377.687 330.719 395.059 346.625 401.396 354.701C440.318 400.461 426.301 452.105 371.99 466.316C358.682 469.509 333.159 480.445 315.223 490.293C290.487 503.683 278.627 507.952 266.94 507.49C246.579 506.561 219.984 486.416 213.329 467.26C208.004 451.337 202.068 389.72 204.635 374.804C205.591 369.532 201.08 374.03 194.471 384.82C149.763 456.271 94.6343 527.079 70.3237 543.403C61.658 548.926 55.8171 550.192 46.1166 548.588C31.957 545.913 14.6976 524.857 17.3305 513.354C18.1082 509.82 31.0412 498.123 45.904 487.861C77.194 466.256 125.01 419.175 147.612 388.12L163.061 367.077L139.172 383.341C118.351 397.025 111.006 399.791 89.6845 401.139C69.267 402.785 61.6743 400.879 50.1568 392.69C32.8501 380.198 23.6048 360.987 23.086 336.672C23.3113 326.371 19.0076 308.59 12.5397 293.687C-1.36545 260.169 -3.1353 245.019 4.54727 226.802C18.0527 195.341 57.4268 181.989 107.498 191.92C117.742 194.301 126.477 195.187 127.199 194.227C127.981 193.687 121.162 185.253 112.534 176.222C75.7293 136.148 63.3841 98.5549 77.6762 69.5482C88.2444 47.4939 106.779 35.849 138.397 31.3123C154.837 28.9533 172.899 22.9387 185.659 15.9734C215.932 -0.778792 242.612 -3.75125 261.062 7.72128ZM194.183 36.144C181.362 42.6901 159.989 49.6078 146.077 51.6039C72.7256 62.1289 76.0582 114.707 154.113 186.943C194.347 223.957 189.658 230.192 132.055 218.775C76.1382 207.116 55.538 207.505 37.9678 219.867C18.8331 233.309 17.3477 246.787 31.6181 282.82C37.847 299.041 44.572 324.604 45.8594 339.395C48.9684 363.766 50.2985 366.998 62.1159 374.287C88.2236 391.079 124.881 373.839 189.846 314.456C234.66 273.368 236.589 274.803 230.066 342.487C221.172 435.328 230.149 476.4 261.423 484.32C273.958 487.656 278.052 486.213 301.823 472.105C316.508 463.58 340.406 453.305 355.278 449.032C392.006 438.2 401.327 428.305 399.3 402.495C398.069 385.129 395.109 379.564 379.784 362.936C370.07 352.35 343.171 330.109 320.497 313.252C280.515 283.903 269.35 269.246 284.947 267.008C289.163 266.403 309.224 268.232 329.89 271.257C378.631 277.955 428.206 278.543 447.472 271.928C481.066 260.262 487.348 232.404 464.464 196.323C457.823 186.152 449.959 164.603 446.077 146.761C437.77 110.3 426.969 98.158 402.814 97.7731C381.67 97.384 355.978 116.046 313.702 162.76C291.813 186.867 277.316 199.644 272.856 198.572C265.264 196.666 265.203 196.247 272.822 136.107C279.785 80.3405 274.915 46.8094 257.665 31.7417C242.283 17.6896 227.828 18.9079 194.183 36.144ZM50.3385 512.469C45.9449 514.811 42.6986 519.128 43.1856 522.481C44.8292 533.797 60.8394 525.51 81.9466 501.943C117.547 462.605 119.884 454.996 87.7603 482.711C71.3376 497.048 54.3715 510.607 50.3385 512.469Z" stroke="black"/>
</svg>
