<svg width="143" height="24" viewBox="0 0 143 24" fill="none" xmlns="http://www.w3.org/2000/svg">
<path fill-rule="evenodd" clip-rule="evenodd" d="M69.1765 0H0V24H69.1765V0ZM13.5293 11.4464H15.8319V19.0383C15.642 19.1008 15.365 19.1711 15.0011 19.2492C14.6529 19.3273 14.2414 19.4054 13.7667 19.4835C13.3078 19.5616 12.8013 19.6241 12.2475 19.671C11.6936 19.7335 11.1318 19.7647 10.5621 19.7647C9.40681 19.7647 8.35443 19.5773 7.40491 19.2023C6.45539 18.8274 5.64039 18.2807 4.9599 17.5621C4.27941 16.8435 3.74926 15.9609 3.36945 14.9143C3.00547 13.8677 2.82348 12.6649 2.82348 11.3058C2.82348 9.94679 3.02921 8.74396 3.44067 7.69734C3.86795 6.6351 4.43766 5.74469 5.1498 5.02612C5.86194 4.30754 6.69277 3.7608 7.64229 3.38589C8.60763 3.01098 9.63628 2.82353 10.7282 2.82353C11.472 2.82353 12.1288 2.87039 12.6985 2.96412C13.284 3.05785 13.7825 3.1672 14.194 3.29217C14.6054 3.41713 14.9378 3.5421 15.191 3.66707C15.46 3.79204 15.642 3.88577 15.7369 3.94826L15.0011 5.84623C14.5421 5.54943 13.9329 5.3073 13.1732 5.11984C12.4136 4.91677 11.6382 4.81523 10.8469 4.81523C10.0082 4.81523 9.24065 4.96363 8.54433 5.26044C7.86384 5.55724 7.27831 5.98682 6.78772 6.54918C6.31296 7.11155 5.94107 7.79888 5.67204 8.61118C5.40301 9.40786 5.26849 10.3061 5.26849 11.3058C5.26849 12.2743 5.37927 13.1569 5.60082 13.9536C5.8382 14.7503 6.18636 15.4376 6.64529 16.0156C7.12005 16.578 7.69768 17.0154 8.37817 17.3278C9.07448 17.6402 9.88948 17.7964 10.8232 17.7964C11.4878 17.7964 12.0496 17.7652 12.5086 17.7027C12.9833 17.6246 13.3236 17.5543 13.5293 17.4918V11.4464ZM23.8524 6.99439C24.0423 6.99439 24.2559 7.01001 24.4933 7.04125C24.7465 7.05687 24.9918 7.08811 25.2292 7.13498C25.4665 7.16622 25.6802 7.20527 25.8701 7.25214C26.0758 7.28338 26.2262 7.31462 26.3211 7.34586L25.9413 9.24384C25.7672 9.18135 25.4745 9.11106 25.063 9.03295C24.6674 8.93922 24.153 8.89236 23.52 8.89236C23.1086 8.89236 22.6971 8.93922 22.2857 9.03295C21.89 9.11106 21.6289 9.16573 21.5023 9.19697V19.4367H19.2947V7.76763C19.8169 7.58018 20.4657 7.40835 21.2412 7.25214C22.0166 7.0803 22.887 6.99439 23.8524 6.99439ZM28.2378 10.556C27.9213 11.3527 27.763 12.29 27.763 13.3678C27.763 14.2895 27.8817 15.1408 28.1191 15.9219C28.3723 16.6873 28.7521 17.3512 29.2585 17.9136C29.7649 18.476 30.4058 18.9212 31.1813 19.2492C31.9725 19.5616 32.9062 19.7178 33.9824 19.7178C34.8369 19.7178 35.5965 19.6397 36.2612 19.4835C36.9417 19.3273 37.4164 19.1789 37.6855 19.0383L37.3769 17.2106C37.1079 17.3356 36.7043 17.4684 36.1662 17.609C35.644 17.734 34.9952 17.7964 34.2197 17.7964C32.8429 17.7964 31.8301 17.4684 31.1813 16.8123C30.5324 16.1562 30.1605 15.1955 30.0656 13.9302H38.5163C38.5321 13.8052 38.54 13.6724 38.54 13.5319V13.1569C38.54 11.0637 38.0969 9.5094 37.2107 8.49402C36.3245 7.46302 35.0506 6.94752 33.3889 6.94752C32.6768 6.94752 31.9804 7.0803 31.3 7.34586C30.6195 7.61142 30.0181 8.00976 29.4959 8.54088C28.9736 9.072 28.5543 9.74372 28.2378 10.556ZM35.4778 9.75934C36.0001 10.3842 36.2533 11.1887 36.2375 12.1728H30.1131C30.1605 11.751 30.2555 11.3371 30.3979 10.9309C30.5562 10.5248 30.7698 10.1655 31.0388 9.85306C31.3079 9.54064 31.6323 9.2907 32.0121 9.10325C32.4077 8.90017 32.8588 8.79863 33.3652 8.79863C34.2672 8.79863 34.9714 9.11887 35.4778 9.75934ZM41.0229 13.3678C41.0229 12.29 41.1811 11.3527 41.4976 10.556C41.8142 9.74372 42.2335 9.072 42.7558 8.54088C43.278 8.00976 43.8794 7.61142 44.5598 7.34586C45.2403 7.0803 45.9366 6.94752 46.6488 6.94752C48.3104 6.94752 49.5844 7.46302 50.4706 8.49402C51.3568 9.5094 51.7999 11.0637 51.7999 13.1569V13.5319C51.7999 13.6724 51.792 13.8052 51.7762 13.9302H43.3255C43.4204 15.1955 43.7923 16.1562 44.4412 16.8123C45.09 17.4684 46.1028 17.7964 47.4796 17.7964C48.2551 17.7964 48.9039 17.734 49.4261 17.609C49.9642 17.4684 50.3677 17.3356 50.6368 17.2106L50.9454 19.0383C50.6763 19.1789 50.2016 19.3273 49.5211 19.4835C48.8564 19.6397 48.0968 19.7178 47.2422 19.7178C46.1661 19.7178 45.2324 19.5616 44.4412 19.2492C43.6657 18.9212 43.0248 18.476 42.5184 17.9136C42.012 17.3512 41.6322 16.6873 41.379 15.9219C41.1416 15.1408 41.0229 14.2895 41.0229 13.3678ZM49.4973 12.1728C49.5132 11.1887 49.26 10.3842 48.7377 9.75934C48.2313 9.11887 47.5271 8.79863 46.625 8.79863C46.1186 8.79863 45.6676 8.90017 45.272 9.10325C44.8922 9.2907 44.5678 9.54064 44.2987 9.85306C44.0297 10.1655 43.8161 10.5248 43.6578 10.9309C43.5154 11.3371 43.4204 11.751 43.3729 12.1728H49.4973ZM56.9889 7.20527C56.1502 7.34586 55.4776 7.47864 54.9712 7.60361V19.4367H57.1788V9.15011C57.2579 9.13449 57.3845 9.11106 57.5586 9.07981C57.7485 9.04857 57.9542 9.02514 58.1758 9.00952C58.4132 8.97828 58.6585 8.95485 58.9117 8.93923C59.1649 8.9236 59.4102 8.91579 59.6476 8.91579C60.2331 8.91579 60.7237 8.9939 61.1193 9.15011C61.5149 9.2907 61.8314 9.52502 62.0688 9.85306C62.3062 10.1811 62.4724 10.6107 62.5673 11.1418C62.6781 11.6729 62.7335 12.3134 62.7335 13.0632V19.4367H64.9411V12.5946C64.9411 11.7667 64.862 11.009 64.7037 10.3217C64.5455 9.63437 64.2685 9.04857 63.8729 8.56432C63.4931 8.06444 62.9788 7.68172 62.3299 7.41616C61.6811 7.13498 60.8661 6.99439 59.8849 6.99439C58.793 6.99439 57.8276 7.06468 56.9889 7.20527Z" fill="#32C641"/>
<path d="M82.6169 21.8824C81.4535 21.8824 80.3936 21.6825 79.4374 21.2827C78.4811 20.8829 77.6604 20.2999 76.975 19.5336C76.2897 18.7673 75.7558 17.8262 75.3733 16.7101C75.0068 15.5773 74.8235 14.2863 74.8235 12.8371C74.8235 11.3878 75.0307 10.1052 75.445 8.9891C75.8754 7.85635 76.4491 6.90685 77.1663 6.14058C77.8835 5.37431 78.7202 4.79128 79.6765 4.39149C80.6327 3.9917 81.6527 3.7918 82.7365 3.7918C83.4218 3.7918 84.0354 3.84178 84.5772 3.94173C85.1351 4.04167 85.6132 4.15828 86.0116 4.29154C86.426 4.42481 86.7607 4.55807 87.0157 4.69133C87.2707 4.8246 87.446 4.92455 87.5416 4.99118L86.8722 6.99014C86.7288 6.89019 86.5216 6.78191 86.2507 6.66531C85.9797 6.5487 85.669 6.4321 85.3183 6.31549C84.9836 6.19888 84.6091 6.10726 84.1947 6.04063C83.7963 5.95734 83.3899 5.9157 82.9755 5.9157C82.099 5.9157 81.3101 6.07395 80.6088 6.39045C79.9076 6.70695 79.3099 7.16505 78.8158 7.76473C78.3218 8.36442 77.9393 9.09737 77.6683 9.96359C77.4133 10.8131 77.2858 11.771 77.2858 12.8371C77.2858 13.8699 77.3974 14.8111 77.6205 15.6606C77.8596 16.5102 78.2102 17.2431 78.6724 17.8595C79.1346 18.4592 79.7083 18.9256 80.3936 19.2587C81.0949 19.5919 81.9077 19.7585 82.8321 19.7585C83.8999 19.7585 84.7844 19.6419 85.4857 19.4087C86.1869 19.1755 86.7129 18.9672 87.0635 18.784L87.6611 20.783C87.5496 20.8662 87.3504 20.9745 87.0635 21.1078C86.7766 21.2244 86.418 21.341 85.9877 21.4576C85.5574 21.5742 85.0554 21.6742 84.4816 21.7574C83.9079 21.8407 83.2863 21.8824 82.6169 21.8824Z" fill="black"/>
<path d="M93.9035 21.7574C92.5329 21.7241 91.5607 21.416 90.9869 20.8329C90.4132 20.2499 90.1263 19.342 90.1263 18.1093V2.51747L92.3496 2.11768V17.7345C92.3496 18.1177 92.3815 18.4342 92.4452 18.684C92.509 18.9339 92.6125 19.1338 92.756 19.2837C92.8994 19.4337 93.0907 19.5503 93.3297 19.6336C93.5688 19.7002 93.8636 19.7585 94.2143 19.8085L93.9035 21.7574Z" fill="black"/>
<path d="M107.684 15.011C107.684 16.0438 107.541 16.9766 107.254 17.8095C106.967 18.6424 106.56 19.3587 106.034 19.9584C105.524 20.5581 104.911 21.0245 104.194 21.3577C103.476 21.6742 102.695 21.8324 101.851 21.8324C101.006 21.8324 100.225 21.6742 99.508 21.3577C98.7908 21.0245 98.1693 20.5581 97.6433 19.9584C97.1333 19.3587 96.7349 18.6424 96.448 17.8095C96.1611 16.9766 96.0177 16.0438 96.0177 15.011C96.0177 13.9948 96.1611 13.0703 96.448 12.2374C96.7349 11.3878 97.1333 10.6632 97.6433 10.0635C98.1693 9.46385 98.7908 9.00575 99.508 8.68925C100.225 8.35609 101.006 8.18951 101.851 8.18951C102.695 8.18951 103.476 8.35609 104.194 8.68925C104.911 9.00575 105.524 9.46385 106.034 10.0635C106.56 10.6632 106.967 11.3878 107.254 12.2374C107.541 13.0703 107.684 13.9948 107.684 15.011ZM105.365 15.011C105.365 13.5451 105.046 12.3873 104.409 11.5378C103.787 10.6716 102.935 10.2384 101.851 10.2384C100.767 10.2384 99.9064 10.6716 99.2689 11.5378C98.6474 12.3873 98.3366 13.5451 98.3366 15.011C98.3366 16.4769 98.6474 17.6429 99.2689 18.5091C99.9064 19.3587 100.767 19.7835 101.851 19.7835C102.935 19.7835 103.787 19.3587 104.409 18.5091C105.046 17.6429 105.365 16.4769 105.365 15.011Z" fill="black"/>
<path d="M120.191 8.51434C119.569 10.9464 118.836 13.2785 117.992 15.5107C117.163 17.7429 116.358 19.7418 115.577 21.5076H113.569C112.788 19.7418 111.975 17.7429 111.131 15.5107C110.302 13.2785 109.577 10.9464 108.955 8.51434H111.346C111.537 9.33059 111.76 10.2051 112.015 11.138C112.286 12.0542 112.565 12.9704 112.852 13.8865C113.155 14.7861 113.457 15.6606 113.76 16.5102C114.063 17.3597 114.35 18.1177 114.621 18.784C114.892 18.1177 115.179 17.3597 115.481 16.5102C115.784 15.6606 116.079 14.7861 116.366 13.8865C116.669 12.9704 116.948 12.0542 117.203 11.138C117.474 10.2051 117.705 9.33059 117.896 8.51434H120.191Z" fill="black"/>
<path d="M121.465 15.0359C121.465 13.8865 121.624 12.8871 121.943 12.0375C122.262 11.1713 122.684 10.455 123.21 9.88863C123.736 9.32226 124.341 8.89748 125.027 8.61429C125.712 8.33111 126.413 8.18951 127.131 8.18951C128.804 8.18951 130.087 8.73923 130.979 9.83865C131.872 10.9214 132.318 12.5789 132.318 14.8111C132.318 14.911 132.318 15.0443 132.318 15.2109C132.318 15.3608 132.31 15.5024 132.294 15.6356H123.784C123.879 16.9849 124.254 18.0094 124.907 18.709C125.561 19.4087 126.581 19.7585 127.967 19.7585C128.748 19.7585 129.402 19.6919 129.928 19.5586C130.469 19.4087 130.876 19.2671 131.147 19.1338L131.458 21.0828C131.187 21.2327 130.709 21.391 130.023 21.5576C129.354 21.7241 128.589 21.8074 127.728 21.8074C126.644 21.8074 125.704 21.6408 124.907 21.3077C124.126 20.9579 123.481 20.4831 122.971 19.8834C122.461 19.2837 122.078 18.5758 121.823 17.7595C121.584 16.9266 121.465 16.0188 121.465 15.0359ZM129.999 13.7616C130.015 12.7122 129.76 11.8543 129.234 11.188C128.724 10.505 128.015 10.1635 127.107 10.1635C126.597 10.1635 126.142 10.2718 125.744 10.4883C125.361 10.6882 125.035 10.9547 124.764 11.2879C124.493 11.6211 124.278 12.0042 124.118 12.4373C123.975 12.8704 123.879 13.3118 123.831 13.7616H129.999Z" fill="black"/>
<path d="M140.102 8.23949C140.293 8.23949 140.508 8.25615 140.747 8.28946C141.002 8.30612 141.249 8.33944 141.489 8.38941C141.728 8.42272 141.943 8.46437 142.134 8.51434C142.341 8.54766 142.493 8.58098 142.588 8.61429L142.206 10.6382C142.03 10.5716 141.736 10.4966 141.321 10.4134C140.923 10.3134 140.405 10.2634 139.767 10.2634C139.353 10.2634 138.939 10.3134 138.524 10.4134C138.126 10.4966 137.863 10.5549 137.735 10.5883V21.5076H135.512V9.06406C136.038 8.86416 136.691 8.68092 137.472 8.51434C138.253 8.33111 139.13 8.23949 140.102 8.23949Z" fill="black"/>
</svg>
